<mxfile host="app.diagrams.net" modified="2023-10-16T05:05:31.359Z" agent="Mozilla/5.0 (Linux; Android 10; K) AppleWebKit/537.36 (KHTML, like Gecko) Chrome/117.0.0.0 Mobile Safari/537.36" version="22.0.4" etag="3mQ4MpLWTdouEgLm1vIr" type="github">
  <diagram name="Halaman-1" id="mxbsWQ_hOtfpxxPwzvwI">
    <mxGraphModel>
      <root>
        <mxCell id="0" />
        <mxCell id="1" parent="0" />
      </root>
    </mxGraphModel>
  </diagram>
</mxfile>
